<?xml version="1.0" encoding="UTF-8" standalone="no" ?>
<!DOCTYPE svg PUBLIC "-//W3C//DTD SVG 1.1//EN" "http://www.w3.org/Graphics/SVG/1.1/DTD/svg11.dtd">
<svg xmlns="http://www.w3.org/2000/svg" xmlns:xlink="http://www.w3.org/1999/xlink" version="1.1" width="2458" height="1080" viewBox="0 0 2458 1080" xml:space="preserve">
<desc>Created with Fabric.js 5.2.4</desc>
<defs>
</defs>
<g transform="matrix(1 0 0 1 540 540)" id="b15fa950-b9ad-4800-95b6-3d36aa5dbfa5"  >
<rect style="stroke: none; stroke-width: 1; stroke-dasharray: none; stroke-linecap: butt; stroke-dashoffset: 0; stroke-linejoin: miter; stroke-miterlimit: 4; fill: rgb(255,255,255); fill-rule: nonzero; opacity: 1; visibility: hidden;" vector-effect="non-scaling-stroke"  x="-540" y="-540" rx="0" ry="0" width="1080" height="1080" />
</g>
<g transform="matrix(1 0 0 1 540 540)" id="82b25d05-0fcf-4c6b-b465-493321d93ce4"  >
</g>
<g transform="matrix(1 0 0 1 140 540)"  >
<g style="" vector-effect="non-scaling-stroke"   >
		<g transform="matrix(0.13 0 0 -0.13 0.11 -98.2)"  >
<path style="stroke: none; stroke-width: 1; stroke-dasharray: none; stroke-linecap: butt; stroke-dashoffset: 0; stroke-linejoin: miter; stroke-miterlimit: 4; fill: rgb(237,237,237); fill-rule: nonzero; opacity: 1;" vector-effect="non-scaling-stroke"  transform=" translate(-2380.81, -3335)" d="M 2754 3914 C 2529 3784 2208 3599 2040 3503 C 1872 3406 1704 3308 1665 3285 L 1595 3244 L 1592 2882 C 1591 2683 1592 2520 1595 2520 C 1597 2520 1666 2558 1747 2605 L 1895 2690 L 1900 2876 L 1905 3062 L 2130 3192 C 2254 3264 2468 3387 2605 3466 L 2855 3610 L 2858 3070 C 2860 2634 2863 2530 2873 2530 C 2880 2530 2950 2567 3028 2611 L 3170 2693 L 3170 3421 C 3170 3822 3169 4150 3167 4150 C 3165 4150 2980 4044 2754 3914 z" stroke-linecap="round" />
</g>
		<g transform="matrix(0.13 0 0 -0.13 -0.12 72.53)"  >
<path style="stroke: none; stroke-width: 1; stroke-dasharray: none; stroke-linecap: butt; stroke-dashoffset: 0; stroke-linejoin: miter; stroke-miterlimit: 4; fill: rgb(237,237,237); fill-rule: nonzero; opacity: 1;" vector-effect="non-scaling-stroke"  transform=" translate(-2379.13, -2054.5)" d="M 2185 2487 C 1992 2376 1780 2254 1712 2215 L 1590 2145 L 1590 1966 C 1590 1814 1592 1789 1605 1793 C 1613 1797 1753 1876 1915 1970 C 2078 2063 2213 2140 2216 2140 C 2218 2140 2220 1978 2220 1780 C 2220 1582 2223 1420 2227 1420 C 2230 1420 2326 1474 2439 1539 C 2552 1604 2760 1724 2900 1805 C 3040 1886 3158 1955 3163 1959 C 3167 1963 3169 2046 3168 2143 L 3165 2320 L 2855 2141 L 2545 1961 L 2540 2325 L 2535 2689 L 2185 2487 z" stroke-linecap="round" />
</g>
		<g transform="matrix(0.13 0 0 -0.13 -84.76 170.8)"  >
<path style="stroke: none; stroke-width: 1; stroke-dasharray: none; stroke-linecap: butt; stroke-dashoffset: 0; stroke-linejoin: miter; stroke-miterlimit: 4; fill: rgb(237,237,237); fill-rule: nonzero; opacity: 1;" vector-effect="non-scaling-stroke"  transform=" translate(-1744.3, -1317.5)" d="M 1745 1501 L 1595 1414 L 1592 1231 L 1590 1047 L 1612 1062 C 1625 1070 1693 1110 1764 1150 C 1834 1191 1894 1229 1896 1235 C 1899 1241 1899 1323 1898 1417 L 1895 1588 L 1745 1501 z" stroke-linecap="round" />
</g>
</g>
</g>
<g transform="matrix(1.27 0 0 1.27 641.65 540)" style="" id="8864dcbd-ad8c-41a8-b3f4-e2025e058376"  >
		<text xml:space="preserve" font-family="Raleway" font-size="200" font-style="normal" font-weight="900" style="stroke: none; stroke-width: 1; stroke-dasharray: none; stroke-linecap: butt; stroke-dashoffset: 0; stroke-linejoin: miter; stroke-miterlimit: 4; fill: rgb(237,237,237); fill-rule: nonzero; opacity: 1; white-space: pre;" ><tspan x="-251.8" y="62.83" >ZAFY</tspan></text>
</g>
<g transform="matrix(NaN NaN NaN NaN 0 0)"  >
<g style=""   >
</g>
</g>
<g transform="matrix(NaN NaN NaN NaN 0 0)"  >
<g style=""   >
</g>
</g>
</svg>