<?xml version="1.0" encoding="UTF-8"?>
<svg xmlns="http://www.w3.org/2000/svg" xmlns:xlink="http://www.w3.org/1999/xlink" width="512px" height="512px" viewBox="0 0 31 31" version="1.1">
<defs>
<filter id="alpha" filterUnits="objectBoundingBox" x="0%" y="0%" width="100%" height="100%">
  <feColorMatrix type="matrix" in="SourceGraphic" values="0 0 0 0 1 0 0 0 0 1 0 0 0 0 1 0 0 0 1 0"/>
</filter>
<mask id="mask0">
  <g filter="url(#alpha)">
<rect x="0" y="0" width="31" height="31" style="fill:rgb(0%,0%,0%);fill-opacity:0.956863;stroke:none;"/>
  </g>
</mask>
<clipPath id="clip1">
  <rect x="0" y="0" width="31" height="31"/>
</clipPath>
<g id="surface5" clip-path="url(#clip1)">
<path style=" stroke:none;fill-rule:evenodd;fill:rgb(99.607843%,99.607843%,99.607843%);fill-opacity:1;" d="M 23.699219 26.636719 C 23.808594 26.378906 23.878906 26.105469 23.902344 25.820312 C 23.917969 25.070312 23.957031 24.335938 24.023438 23.617188 C 24.472656 23.644531 24.707031 23.425781 24.71875 22.964844 C 24.773438 18.695312 24.773438 14.425781 24.71875 10.15625 C 24.53125 9.277344 24.054688 8.613281 23.289062 8.15625 C 19.503906 6.957031 15.710938 5.773438 11.910156 4.609375 C 11.605469 4.683594 11.429688 4.875 11.378906 5.179688 C 10.542969 4.910156 9.699219 4.664062 8.851562 4.445312 C 9.398438 2.691406 10.59375 1.886719 12.441406 2.039062 C 16.394531 3.230469 20.335938 4.453125 24.269531 5.710938 C 26.160156 6.703125 27.207031 8.265625 27.410156 10.402344 C 27.425781 16.730469 27.4375 23.050781 27.453125 29.367188 C 27.371094 29.421875 27.289062 29.421875 27.207031 29.367188 C 26.070312 28.40625 24.898438 27.496094 23.699219 26.636719 Z M 23.699219 26.636719 "/>
</g>
<mask id="mask1">
  <g filter="url(#alpha)">
<rect x="0" y="0" width="31" height="31" style="fill:rgb(0%,0%,0%);fill-opacity:0.964706;stroke:none;"/>
  </g>
</mask>
<clipPath id="clip2">
  <rect x="0" y="0" width="31" height="31"/>
</clipPath>
<g id="surface8" clip-path="url(#clip2)">
<path style=" stroke:none;fill-rule:evenodd;fill:rgb(1.568627%,47.45098%,90.196078%);fill-opacity:1;" d="M 8.851562 4.445312 C 9.699219 4.664062 10.542969 4.910156 11.378906 5.179688 C 14.5625 6.132812 17.746094 7.097656 20.925781 8.078125 C 23.398438 8.832031 24.433594 10.503906 24.023438 13.09375 C 23.996094 13.71875 23.96875 14.34375 23.945312 14.96875 C 23.132812 14.703125 22.316406 14.445312 21.496094 14.195312 C 21.425781 14.136719 21.371094 14.070312 21.332031 13.992188 C 21.449219 13.066406 21.4375 12.140625 21.292969 11.21875 C 21.195312 11.121094 21.101562 11.027344 21.007812 10.929688 C 17.785156 9.871094 14.546875 8.851562 11.296875 7.871094 C 10.46875 7.511719 9.597656 7.242188 8.6875 7.054688 C 8.273438 7.023438 8.042969 7.210938 7.996094 7.628906 C 7.941406 11.925781 7.941406 16.21875 7.996094 20.515625 C 8.1875 21.390625 8.664062 22.054688 9.421875 22.515625 C 13.210938 23.714844 17.003906 24.898438 20.800781 26.066406 C 21.109375 25.992188 21.285156 25.800781 21.332031 25.492188 C 21.414062 24.609375 21.441406 23.714844 21.414062 22.800781 C 21.386719 22.308594 21.414062 21.820312 21.496094 21.332031 C 22.277344 21.617188 23.0625 21.875 23.863281 22.109375 C 23.917969 22.195312 23.960938 22.289062 23.984375 22.394531 C 24.023438 22.800781 24.039062 23.207031 24.023438 23.617188 C 23.957031 24.335938 23.917969 25.070312 23.902344 25.820312 C 23.878906 26.105469 23.808594 26.378906 23.699219 26.636719 C 22.957031 28.242188 21.707031 28.882812 19.945312 28.550781 C 16.1875 27.398438 12.4375 26.230469 8.6875 25.042969 C 6.832031 24.199219 5.730469 22.773438 5.382812 20.761719 C 5.328125 16.246094 5.328125 11.734375 5.382812 7.21875 C 5.726562 5.492188 6.773438 4.539062 8.523438 4.363281 C 8.636719 4.394531 8.742188 4.417969 8.851562 4.445312 Z M 8.851562 4.445312 "/>
</g>
<mask id="mask2">
  <g filter="url(#alpha)">
<rect x="0" y="0" width="31" height="31" style="fill:rgb(0%,0%,0%);fill-opacity:0.952941;stroke:none;"/>
  </g>
</mask>
<clipPath id="clip3">
  <rect x="0" y="0" width="31" height="31"/>
</clipPath>
<g id="surface11" clip-path="url(#clip3)">
<path style=" stroke:none;fill-rule:evenodd;fill:rgb(99.607843%,99.607843%,99.607843%);fill-opacity:1;" d="M 8.6875 7.054688 C 9.597656 7.242188 10.46875 7.511719 11.296875 7.871094 C 11.40625 11.265625 11.40625 14.664062 11.296875 18.070312 C 11.339844 18.617188 11.40625 19.160156 11.503906 19.703125 C 14.796875 20.757812 18.101562 21.792969 21.414062 22.800781 C 21.441406 23.714844 21.414062 24.609375 21.332031 25.492188 C 17.824219 24.433594 14.316406 23.359375 10.808594 22.269531 C 9.359375 21.585938 8.664062 20.429688 8.730469 18.804688 C 8.6875 14.886719 8.675781 10.972656 8.6875 7.054688 Z M 8.6875 7.054688 "/>
</g>
</defs>
<g id="surface1">
<use xlink:href="#surface5" mask="url(#mask0)"/>
<use xlink:href="#surface8" mask="url(#mask1)"/>
<use xlink:href="#surface11" mask="url(#mask2)"/>
</g>
</svg>
