<?xml version="1.0" standalone="no"?>
<!DOCTYPE svg PUBLIC "-//W3C//DTD SVG 20010904//EN"
 "http://www.w3.org/TR/2001/REC-SVG-20010904/DTD/svg10.dtd">
<svg version="1.0" xmlns="http://www.w3.org/2000/svg"
 width="500.000000pt" height="500.000000pt" viewBox="0 0 500.000000 500.000000"
 preserveAspectRatio="xMidYMid meet">

<g transform="translate(0.000000,500.000000) scale(0.100000,-0.100000)"
fill="#000000" stroke="none">
<path d="M2754 3914 c-225 -130 -546 -315 -714 -411 -168 -97 -336 -195 -375
-218 l-70 -41 -3 -362 c-1 -199 0 -362 3 -362 2 0 71 38 152 85 l148 85 5 186
5 186 225 130 c124 72 338 195 475 274 l250 144 3 -540 c2 -436 5 -540 15
-540 7 0 77 37 155 81 l142 82 0 728 c0 401 -1 729 -3 729 -2 0 -187 -106
-413 -236z"/>
<path d="M2185 2487 c-193 -111 -405 -233 -473 -272 l-122 -70 0 -179 c0 -152
2 -177 15 -173 8 4 148 83 310 177 163 93 298 170 301 170 2 0 4 -162 4 -360
0 -198 3 -360 7 -360 3 0 99 54 212 119 113 65 321 185 461 266 140 81 258
150 263 154 4 4 6 87 5 184 l-3 177 -310 -179 -310 -180 -5 364 -5 364 -350
-202z"/>
<path d="M1745 1501 l-150 -87 -3 -183 -2 -184 22 15 c13 8 81 48 152 88 70
41 130 79 132 85 3 6 3 88 2 182 l-3 171 -150 -87z"/>
</g>
</svg>
